<?xml version="1.0" encoding="UTF-8" standalone="no"?>
<svg
   viewBox="0 0 65 65"
   fill="#fff"
   fill-rule="evenodd"
   stroke="#000"
   stroke-linecap="round"
   stroke-linejoin="round"
   version="1.1"
   id="svg7"
   sodipodi:docname="wireguard-icon-inactive.svg"
   inkscape:version="1.2.1 (9c6d41e410, 2022-07-14, custom)"
   xmlns:inkscape="http://www.inkscape.org/namespaces/inkscape"
   xmlns:sodipodi="http://sodipodi.sourceforge.net/DTD/sodipodi-0.dtd"
   xmlns:xlink="http://www.w3.org/1999/xlink"
   xmlns="http://www.w3.org/2000/svg"
   xmlns:svg="http://www.w3.org/2000/svg">
  <defs
     id="defs11" />
  <sodipodi:namedview
     id="namedview9"
     pagecolor="#ffffff"
     bordercolor="#000000"
     borderopacity="0.25"
     inkscape:showpageshadow="2"
     inkscape:pageopacity="0.0"
     inkscape:pagecheckerboard="true"
     inkscape:deskcolor="#d1d1d1"
     showgrid="false"
     inkscape:zoom="9.1271165"
     inkscape:cx="12.545035"
     inkscape:cy="31.11607"
     inkscape:window-width="1920"
     inkscape:window-height="1011"
     inkscape:window-x="0"
     inkscape:window-y="32"
     inkscape:window-maximized="1"
     inkscape:current-layer="svg7" />
  <use
     xlink:href="#A"
     x=".5"
     y=".5"
     id="use2"
     style="fill:#ffffff" />
  <symbol
     id="A"
     overflow="visible">
    <path
       d="M63.945 31.053S65.425 0 31.297 0C1.115 0 .172 29.788.172 29.788S-4.268 64 31.992 64c34.777 0 31.953-32.947 31.953-32.947zm-42.197-10.85c6.404-3.918 14.585-1.523 17.65 4.368.58 1.117.655 2.835.287 4.007-1.27 4.044-4.27 6.312-8.386 7.275 1.214-1.04 2.18-2.217 2.487-3.845a5.63 5.63 0 0 0-.969-4.471 5.71 5.71 0 0 0-6.573-2.003c-2.535.962-3.923 3.275-3.673 6.12.232 2.64 2.237 4.353 5.986 5.003l-1.414.75c-1.718.94-3.212 2.24-4.383 3.812-.38.514-.642.555-1.222.2-7.54-4.6-8.023-16.18.2-21.216zM16.106 48.7c-1.2.307-2.385.762-3.623 1.17.606-4.085 5.4-7.848 9.436-7.42a10.43 10.43 0 0 0-1.972 5.524c-1.344.248-2.6.414-3.84.726zM41.874 8.8c1.197.044 2.396.026 3.593.054a6.19 6.19 0 0 1 .889.124 9.42 9.42 0 0 1-.904 1.16c-.428.4-.912.8-1.53.183-.148-.146-.5-.112-.757-.116-1.2-.016-2.383-.054-3.572-.01-1.032.033-2.06.138-3.077.314-.2.034-.476.668-.388.902.207.552.508 1.16.955 1.512 1.65 1.303 3.407 2.474 5.066 3.768 1.612 1.258 3.112 2.636 4.027 4.534 1.2 2.473 1.226 5.065.712 7.67-.858 4.347-3.058 7.95-6.62 10.565-1.435 1.054-3.213 1.652-4.857 2.4-1.446.666-2.934 1.24-4.384 1.9-2.613 1.188-4.082 4.024-3.65 6.973.396 2.706 2.77 4.964 5.5 5.43 3.262.56 6.628-1.56 7.426-4.877.897-3.73-1.128-7.058-4.92-8.067l-.683-.176c1.014-.453 1.9-.776 2.7-1.22q2.117-1.165 4.156-2.467c.4-.256.616-.256.957.04 2.608 2.255 4.164 5.06 4.6 8.5.722 5.693-1.973 10.922-7.055 13.602-7.863 4.147-17.486-.573-19.222-9.3-1.488-7.467 3.782-14.24 10.125-15.548 2.728-.562 5.222-1.698 7.162-3.8 1.25-1.356 1.858-2.52 2.064-3.043a8.44 8.44 0 0 0 .58-3.087 7.23 7.23 0 0 0-.633-2.645c-.662-1.5-3.2-3.9-3.827-4.417l-5.973-4.676c-.2-.173-.448-.16-.962-.126-.6.04-2.17.128-2.844-.05.545-.412 2.03-1.012 2.667-1.495-1.936-1.308-4.145-.835-6.174-1.226.47-.874 2.8-2.217 4.1-2.366-.078-.737-.198-1.47-.36-2.193-.08-.297-.412-.585-.7-.754-.7-.4-1.444-.75-2.25-1.16a4.68 4.68 0 0 1 2.417-.748c.814-.03 1.628.048 2.42.236 1.438.33 2.586.114 3.73-.864-.9-.363-1.8-.694-2.675-1.086-.857-.39-1.693-.825-2.503-1.304 2.266.315 4.458 1.164 6.775.854q.03-.158.06-.316l-5.4-1.244c3.2-.293 6.195-.342 9.025 1.036.796.388 1.63.7 2.392 1.15.372.216.623.642.928.973.242.263.437.615.735.774 1.13.6 2.375.625 3.643.595l.028-.425c1.276.4 2.712 1.87 2.7 2.945-2.067 0-4.133-.008-6.2.01-.22.002-.44.163-.66.25.2.122.414.34.628.35zm-2.667-3.06c-.085.053-.14.143-.147.243a.32.32 0 0 0 .107.263.48.48 0 0 0 .29.225c.122.033.254.015.364-.05l.635-.334-.5-.434c-.28-.232-.514-.086-.74.087z"
       stroke="none"
       fill="#88171a"
       fill-rule="nonzero"
       id="path4" />
  </symbol>
  <path
     style="fill:#666666;stroke-width:0.109564"
     d="M 28.541325,64.306446 C 18.150566,63.40182 10.795463,59.681349 6.0296227,52.919232 3.1727888,48.865751 1.3792611,43.67994 0.7625104,37.689888 0.53808857,35.510242 0.5945223,30.787733 0.87113061,28.60029 1.7177423,21.905208 4.2273366,15.60824 7.8781259,11.018632 13.197317,4.3315839 20.746919,0.87638369 30.677816,0.58397647 41.466861,0.26630178 50.469929,3.4064664 56.275383,9.5121084 c 4.468074,4.6991086 7.27828,11.3137576 7.987727,18.8014786 0.201827,2.130146 0.174963,7.299597 -0.04725,9.091796 -1.020957,8.234339 -3.956233,14.654518 -8.792625,19.23167 -4.410686,4.174262 -10.051311,6.596155 -17.514221,7.520011 -1.684329,0.208507 -7.604234,0.302911 -9.36769,0.149382 z m 8.065966,-0.92615 c 4.019386,-0.68822 7.487314,-3.122016 9.512622,-6.67597 1.075264,-1.886843 1.618865,-4.054993 1.622018,-6.469403 0.0044,-3.364888 -0.91592,-6.057613 -2.927933,-8.56677 -0.958079,-1.194809 -1.873756,-2.00612 -2.264184,-2.00612 -0.183061,0 -0.849275,0.336286 -1.703757,0.860009 -2.523053,1.546411 -3.719348,2.172639 -5.511787,2.885278 -0.247532,0.09841 -0.172993,0.142254 0.774012,0.455252 2.254799,0.74524 3.738638,2.092313 4.484889,4.071515 0.349181,0.926095 0.425975,2.622022 0.167514,3.699344 -0.556942,2.321439 -2.43907,4.24623 -4.730066,4.837286 -2.915075,0.752063 -6.124143,-0.749382 -7.529598,-3.522915 -0.840062,-1.657782 -0.825562,-3.88854 0.03657,-5.62618 0.408151,-0.822633 0.543165,-1.014031 1.183596,-1.677886 0.793429,-0.822449 1.331058,-1.110016 5.229609,-2.797216 4.369607,-1.891061 5.251857,-2.342799 6.430809,-3.292764 3.998203,-3.221635 6.334353,-8.093618 6.331269,-13.203704 -0.002,-3.385088 -1.123943,-5.790936 -3.825023,-8.202531 -0.669093,-0.597385 -1.26223,-1.051857 -5.114759,-3.91902 -1.306399,-0.972261 -1.469465,-1.132362 -1.79725,-1.76457 -0.335543,-0.647172 -0.349849,-0.717224 -0.206696,-1.012176 0.08923,-0.18386 0.278635,-0.349934 0.451182,-0.395616 0.70588,-0.18688 2.663359,-0.318852 4.719447,-0.318182 2.025439,6.58e-4 2.24241,0.01929 2.543057,0.218406 0.49617,0.3286 0.864311,0.279068 1.3785,-0.18547 0.394112,-0.356056 1.15255,-1.3261125 1.064554,-1.3615842 -0.01796,-0.00724 -1.075517,-0.04649 -2.350128,-0.087223 C 42.867541,9.2674953 42.21089,9.2086898 42.078001,9.0984017 41.935159,8.9798538 41.927237,8.9300515 42.039857,8.858612 42.118037,8.80902 43.624128,8.767691 45.386733,8.766768 l 3.204736,-0.00168 V 8.4868164 c 0,-0.354251 -0.344386,-1.0315176 -0.772402,-1.5190014 -0.359012,-0.408892 -1.320427,-1.084418 -1.720171,-1.2086563 -0.204591,-0.063586 -0.246518,-0.035278 -0.246518,0.1664447 0,0.2389844 -0.01804,0.2419621 -1.075667,0.1775288 C 44.124736,6.0634121 43.408198,5.9414652 42.957568,5.793534 42.284085,5.572445 42.151668,5.4764899 41.550997,4.7742704 40.77264,3.8643271 40.448836,3.6485877 38.621179,2.822234 36.343658,1.7924796 34.684912,1.4246456 32.32127,1.4252026 c -1.367452,3.222e-4 -3.232237,0.1199864 -3.231794,0.2073856 2.19e-4,0.036106 1.192049,0.3379001 2.64859,0.6706527 1.706285,0.3898075 2.665993,0.6582176 2.698123,0.7546075 0.09422,0.2826499 -2.521089,0.076859 -4.634882,-0.3647055 -2.113586,-0.4415211 -2.291952,-0.4614168 -1.972503,-0.2200215 0.396701,0.2997709 2.499299,1.3201424 3.70628,1.7986232 1.296353,0.5139102 1.304912,0.5317894 0.465816,0.9731263 -0.834062,0.4386886 -1.499225,0.5132702 -2.788986,0.3127156 -1.904328,-0.2961177 -2.119445,-0.3098012 -2.971228,-0.1889968 -0.719475,0.10204 -1.972342,0.5477615 -1.972342,0.7016827 0,0.031018 0.566383,0.3579955 1.25863,0.7266173 0.692247,0.3686217 1.351037,0.7876957 1.463976,0.9312757 0.187765,0.2387037 0.323858,0.7677487 0.509548,1.9808045 l 0.06901,0.4508431 -0.525615,0.132351 c -1.222713,0.307883 -3.721117,1.930004 -3.506775,2.276818 0.04106,0.06644 0.50588,0.151785 1.03293,0.189661 2.092642,0.150384 3.219741,0.296647 3.774119,0.489766 0.770305,0.268336 1.183227,0.464457 1.183227,0.561985 0,0.04387 -0.406755,0.288841 -0.9039,0.544374 -1.422279,0.731053 -1.658177,0.889569 -1.488809,1.000429 0.08066,0.0528 0.898072,0.08896 1.816472,0.08036 0.926176,-0.0087 1.731266,0.03127 1.8078,0.08967 2.426966,1.852127 6.347204,4.975796 6.91634,5.510982 1.812274,1.704165 3.022408,3.477367 3.36476,4.930363 0.324249,1.376161 0.06014,3.379363 -0.625621,4.745126 -0.649038,1.292627 -1.912497,2.808843 -3.162807,3.795527 -1.524815,1.203312 -3.008239,1.875903 -5.580887,2.530401 -3.004503,0.764364 -4.778817,1.739834 -6.711292,3.68969 -4.701132,4.743412 -5.217864,12.067246 -1.231795,17.458649 0.708439,0.958209 2.271496,2.448291 3.244718,3.093232 1.567207,1.038567 3.762926,1.901917 5.458457,2.146248 1.078922,0.155475 3.134514,0.13325 4.176457,-0.04516 z M 14.357967,49.95779 c 1.686708,-0.568593 2.717371,-0.831531 4.536104,-1.157234 0.8104,-0.145128 1.512976,-0.263869 1.561282,-0.263869 0.0483,0 0.08783,-0.169339 0.08783,-0.376309 0,-1.226625 0.7978,-3.504122 1.678503,-4.791661 0.15122,-0.221074 0.246283,-0.430614 0.211251,-0.465646 -0.114348,-0.114347 -1.085843,-0.06708 -1.92629,0.09373 -3.22603,0.617241 -6.258205,3.21174 -7.303178,6.249006 -0.191062,0.555331 -0.288371,1.153465 -0.187653,1.153465 0.01789,0 0.621857,-0.198665 1.342154,-0.441479 z m 9.415669,-8.759897 c 1.290574,-1.521154 2.550492,-2.515708 4.518057,-3.566465 0.435173,-0.232399 0.768104,-0.445662 0.739847,-0.473918 -0.02826,-0.02826 -0.504401,-0.165894 -1.058099,-0.305859 -3.842552,-0.971336 -5.578041,-3.619352 -4.62074,-7.050344 0.531251,-1.904019 2.061141,-3.369945 4.060468,-3.890704 2.434179,-0.634023 5.139489,0.637077 6.287723,2.954312 1.209103,2.440069 0.640223,5.058383 -1.53008,7.04231 -0.606457,0.554378 -0.49446,0.58076 0.774793,0.182511 3.680251,-1.154738 6.06781,-3.396966 7.221007,-6.781466 0.215555,-0.632625 0.258946,-0.968424 0.247765,-1.917363 -0.01655,-1.404595 -0.216465,-2.029684 -1.065887,-3.332814 -1.571445,-2.410808 -4.178687,-4.188102 -7.288852,-4.968635 -1.029955,-0.258478 -1.375338,-0.291968 -3.025277,-0.293345 -1.691571,-0.0014 -1.972436,0.02687 -3.059076,0.308028 -4.358538,1.127737 -7.781457,4.176761 -9.100646,8.106557 -1.811337,5.39588 0.108872,11.405679 4.605129,14.412958 1.187118,0.793993 1.272443,0.778156 2.293868,-0.425763 z"
     id="path238" />
  <path
     style="fill:#666666;stroke-width:0.0387366"
     d="M 39.876563,6.9153223 C 39.821783,6.8855329 39.72825,6.7908673 39.668712,6.7049542 39.530011,6.5048076 39.555024,6.392133 39.773623,6.2323813 c 0.212154,-0.155041 0.327359,-0.1979917 0.455549,-0.1698365 0.09804,0.021533 0.657301,0.4622701 0.657301,0.5179994 0,0.044769 -0.732669,0.3921202 -0.823665,0.3904914 -0.04765,-8.529e-4 -0.131465,-0.025924 -0.186245,-0.055713 z"
     id="path240" />
</svg>
