<?xml version="1.0" encoding="UTF-8" standalone="no"?>
<svg
   viewBox="0 0 65 65"
   fill="#fff"
   fill-rule="evenodd"
   stroke="#000"
   stroke-linecap="round"
   stroke-linejoin="round"
   version="1.1"
   id="svg7"
   sodipodi:docname="wireguard-icon.svg"
   inkscape:version="1.2.1 (9c6d41e410, 2022-07-14, custom)"
   xmlns:inkscape="http://www.inkscape.org/namespaces/inkscape"
   xmlns:sodipodi="http://sodipodi.sourceforge.net/DTD/sodipodi-0.dtd"
   xmlns:xlink="http://www.w3.org/1999/xlink"
   xmlns="http://www.w3.org/2000/svg"
   xmlns:svg="http://www.w3.org/2000/svg">
  <defs
     id="defs11" />
  <sodipodi:namedview
     id="namedview9"
     pagecolor="#ffffff"
     bordercolor="#000000"
     borderopacity="0.25"
     inkscape:showpageshadow="2"
     inkscape:pageopacity="0.0"
     inkscape:pagecheckerboard="true"
     inkscape:deskcolor="#d1d1d1"
     showgrid="false"
     inkscape:zoom="12.907692"
     inkscape:cx="20.56913"
     inkscape:cy="28.897497"
     inkscape:window-width="1920"
     inkscape:window-height="1011"
     inkscape:window-x="0"
     inkscape:window-y="32"
     inkscape:window-maximized="1"
     inkscape:current-layer="svg7" />
  <use
     xlink:href="#A"
     x=".5"
     y=".5"
     id="use2"
     style="fill:#ffffff" />
  <symbol
     id="A"
     overflow="visible">
    <path
       d="M63.945 31.053S65.425 0 31.297 0C1.115 0 .172 29.788.172 29.788S-4.268 64 31.992 64c34.777 0 31.953-32.947 31.953-32.947zm-42.197-10.85c6.404-3.918 14.585-1.523 17.65 4.368.58 1.117.655 2.835.287 4.007-1.27 4.044-4.27 6.312-8.386 7.275 1.214-1.04 2.18-2.217 2.487-3.845a5.63 5.63 0 0 0-.969-4.471 5.71 5.71 0 0 0-6.573-2.003c-2.535.962-3.923 3.275-3.673 6.12.232 2.64 2.237 4.353 5.986 5.003l-1.414.75c-1.718.94-3.212 2.24-4.383 3.812-.38.514-.642.555-1.222.2-7.54-4.6-8.023-16.18.2-21.216zM16.106 48.7c-1.2.307-2.385.762-3.623 1.17.606-4.085 5.4-7.848 9.436-7.42a10.43 10.43 0 0 0-1.972 5.524c-1.344.248-2.6.414-3.84.726zM41.874 8.8c1.197.044 2.396.026 3.593.054a6.19 6.19 0 0 1 .889.124 9.42 9.42 0 0 1-.904 1.16c-.428.4-.912.8-1.53.183-.148-.146-.5-.112-.757-.116-1.2-.016-2.383-.054-3.572-.01-1.032.033-2.06.138-3.077.314-.2.034-.476.668-.388.902.207.552.508 1.16.955 1.512 1.65 1.303 3.407 2.474 5.066 3.768 1.612 1.258 3.112 2.636 4.027 4.534 1.2 2.473 1.226 5.065.712 7.67-.858 4.347-3.058 7.95-6.62 10.565-1.435 1.054-3.213 1.652-4.857 2.4-1.446.666-2.934 1.24-4.384 1.9-2.613 1.188-4.082 4.024-3.65 6.973.396 2.706 2.77 4.964 5.5 5.43 3.262.56 6.628-1.56 7.426-4.877.897-3.73-1.128-7.058-4.92-8.067l-.683-.176c1.014-.453 1.9-.776 2.7-1.22q2.117-1.165 4.156-2.467c.4-.256.616-.256.957.04 2.608 2.255 4.164 5.06 4.6 8.5.722 5.693-1.973 10.922-7.055 13.602-7.863 4.147-17.486-.573-19.222-9.3-1.488-7.467 3.782-14.24 10.125-15.548 2.728-.562 5.222-1.698 7.162-3.8 1.25-1.356 1.858-2.52 2.064-3.043a8.44 8.44 0 0 0 .58-3.087 7.23 7.23 0 0 0-.633-2.645c-.662-1.5-3.2-3.9-3.827-4.417l-5.973-4.676c-.2-.173-.448-.16-.962-.126-.6.04-2.17.128-2.844-.05.545-.412 2.03-1.012 2.667-1.495-1.936-1.308-4.145-.835-6.174-1.226.47-.874 2.8-2.217 4.1-2.366-.078-.737-.198-1.47-.36-2.193-.08-.297-.412-.585-.7-.754-.7-.4-1.444-.75-2.25-1.16a4.68 4.68 0 0 1 2.417-.748c.814-.03 1.628.048 2.42.236 1.438.33 2.586.114 3.73-.864-.9-.363-1.8-.694-2.675-1.086-.857-.39-1.693-.825-2.503-1.304 2.266.315 4.458 1.164 6.775.854q.03-.158.06-.316l-5.4-1.244c3.2-.293 6.195-.342 9.025 1.036.796.388 1.63.7 2.392 1.15.372.216.623.642.928.973.242.263.437.615.735.774 1.13.6 2.375.625 3.643.595l.028-.425c1.276.4 2.712 1.87 2.7 2.945-2.067 0-4.133-.008-6.2.01-.22.002-.44.163-.66.25.2.122.414.34.628.35zm-2.667-3.06c-.085.053-.14.143-.147.243a.32.32 0 0 0 .107.263.48.48 0 0 0 .29.225c.122.033.254.015.364-.05l.635-.334-.5-.434c-.28-.232-.514-.086-.74.087z"
       stroke="none"
       fill="#88171a"
       fill-rule="nonzero"
       id="path4" />
  </symbol>
  <path
     style="fill:#ffffff;stroke-width:0.0774732"
     d="m 32.926103,63.40312 c -2.177974,-0.314727 -4.104086,-1.048189 -5.926699,-2.256882 -1.209268,-0.801943 -2.761301,-2.346294 -3.552415,-3.534831 -1.329194,-1.996925 -2.054038,-4.056845 -2.273053,-6.459738 -0.12429,-1.363629 -0.0057,-2.731063 0.359775,-4.148444 0.632123,-2.451501 1.667267,-4.291135 3.446502,-6.125038 1.909957,-1.968642 3.968696,-3.120283 6.659751,-3.725406 2.844539,-0.639638 4.986161,-1.753236 6.709261,-3.488674 1.375561,-1.385409 2.334421,-2.907566 2.668498,-4.236143 0.380699,-1.513985 0.357833,-2.777194 -0.07464,-4.123201 -0.399176,-1.242389 -1.120339,-2.254373 -2.825472,-3.964894 -0.780307,-0.782772 -1.728526,-1.574543 -4.19835,-3.505662 L 30.728873,15.33969 h -1.748525 c -1.013515,0 -1.748524,-0.02998 -1.748524,-0.07132 0,-0.03923 0.427071,-0.288714 0.949046,-0.554414 1.083214,-0.551385 1.530095,-0.818758 1.530095,-0.915468 0,-0.037 -0.252756,-0.190868 -0.56168,-0.341931 -0.922898,-0.451295 -1.452869,-0.556137 -3.60283,-0.712728 -0.867291,-0.06317 -1.665011,-0.136968 -1.772711,-0.163999 l -0.195818,-0.04915 0.33559,-0.344066 c 0.676646,-0.693735 2.354296,-1.628352 3.269774,-1.821588 l 0.455041,-0.09605 -0.04639,-0.4967742 C 27.566428,9.4989776 27.487954,8.9577516 27.417556,8.5694788 27.298498,7.9128277 27.267056,7.8418868 26.967327,7.5536353 26.778459,7.3719993 26.184214,7.0064065 25.53152,6.6702934 l -1.113575,-0.573449 0.419156,-0.2163659 c 0.716242,-0.3697197 1.414025,-0.484827 2.619611,-0.4321346 0.57938,0.025323 1.29746,0.1036025 1.595731,0.1739545 0.807187,0.1903876 1.822042,0.1765775 2.440406,-0.033209 0.488676,-0.1657888 1.322197,-0.6675739 1.369567,-0.8244886 0.01286,-0.04261 -0.542783,-0.3009302 -1.23477,-0.5740445 -1.314993,-0.5190026 -3.626875,-1.6449254 -3.478865,-1.6942618 0.04715,-0.015718 0.862436,0.1298213 1.811741,0.3234195 1.932211,0.3940489 3.161341,0.5369735 3.985707,0.4634627 0.474803,-0.042339 0.561384,-0.072827 0.597345,-0.210341 0.02313,-0.088454 0.02602,-0.1768659 0.0064,-0.1964717 -0.01961,-0.019606 -1.194847,-0.3037038 -2.611647,-0.6313289 l -2.575998,-0.595682 0.852205,-0.05968 c 1.335807,-0.093547 3.403737,-0.060157 4.317011,0.069706 1.654367,0.2352423 2.563042,0.5421561 4.830249,1.6314654 l 1.322469,0.6353972 0.639048,0.7678091 c 0.955763,1.1483381 1.589194,1.4160612 3.514286,1.4853341 l 1.065257,0.038332 V 6.0141027 c 0,-0.1119877 0.02127,-0.203614 0.04726,-0.203614 0.02599,0 0.260757,0.1133045 0.521699,0.2517878 0.918744,0.4875847 1.901669,1.6129774 2.029965,2.3241955 l 0.05241,0.2905244 h -3.18887 c -2.70688,0 -3.223418,0.017866 -3.417442,0.1181993 -0.289773,0.1498476 -0.286738,0.2005803 0.02322,0.3880407 0.229908,0.1390497 0.441629,0.1556483 2.43654,0.1910187 1.356203,0.024046 2.215292,0.06928 2.265282,0.1192754 0.108741,0.1087522 -0.6739,1.0885445 -1.095997,1.3720835 -0.389677,0.261761 -0.652425,0.269239 -0.979571,0.02788 -0.240868,-0.177707 -0.32036,-0.187296 -1.97125,-0.237783 -1.71004,-0.0523 -3.460491,0.01965 -4.867152,0.200045 -0.867136,0.111206 -1.071489,0.251799 -1.130797,0.77798 -0.03443,0.305475 0.0014,0.435398 0.251459,0.91122 0.173115,0.329439 0.436515,0.682971 0.648196,0.870001 0.196118,0.17328 1.332741,1.031047 2.525828,1.906149 2.851312,2.091372 3.468167,2.588698 4.535102,3.656325 2.739426,2.741205 3.61755,6.079186 2.744851,10.433912 -0.847928,4.23112 -3.083447,7.867616 -6.334103,10.303622 -1.245386,0.933278 -1.708166,1.158397 -7.337387,3.569267 -2.388078,1.02276 -2.94397,1.311562 -3.620255,1.880826 -2.195974,1.848462 -2.915574,5.30053 -1.6368,7.852061 1.194527,2.383434 3.801417,3.904537 6.419152,3.745531 2.998717,-0.182147 5.467696,-2.321309 6.075509,-5.263917 0.271879,-1.316254 0.10677,-2.974604 -0.409527,-4.113273 -0.448881,-0.989986 -1.338633,-2.033387 -2.282472,-2.676627 -0.510194,-0.347704 -1.534449,-0.815519 -2.143939,-0.979217 -0.276966,-0.07439 -0.531489,-0.159725 -0.565607,-0.189637 -0.03412,-0.02991 0.413971,-0.257958 0.995751,-0.50677 1.055012,-0.451203 2.921081,-1.481722 4.825868,-2.665043 0.663153,-0.411974 1.082745,-0.624421 1.233254,-0.624421 0.178406,0 0.37328,0.135807 0.894134,0.623123 2.124336,1.987545 3.480066,4.456731 4.017951,7.317878 0.253612,1.349028 0.254078,3.720576 9.76e-4,4.984143 -0.548018,2.735916 -1.686302,4.877866 -3.610211,6.793468 -1.220303,1.215033 -2.126818,1.873623 -3.569829,2.593508 -2.013039,1.004257 -3.308744,1.319197 -5.57807,1.35583 -0.852205,0.01376 -1.654052,0.0099 -1.781883,-0.0086 z m 7.61174,-56.543936 c 0.223703,-0.1041492 0.406734,-0.2193063 0.406734,-0.2559048 0,-0.089687 -0.383149,-0.4418479 -0.605037,-0.5561029 -0.147455,-0.075928 -0.229231,-0.066135 -0.464839,0.055667 -0.380034,0.1964667 -0.43467,0.5395284 -0.124751,0.7833113 0.26081,0.2051532 0.291571,0.2041002 0.787893,-0.026971 z"
     id="path356" />
  <path
     style="fill:#ffffff;stroke-width:0.0774732"
     d="m 22.170297,41.919812 c -0.695517,-0.365863 -1.588965,-1.065751 -2.375899,-1.861176 -3.206883,-3.241484 -4.333199,-8.14966 -2.896649,-12.622799 0.281987,-0.878053 1.11739,-2.510578 1.690194,-3.302941 0.27723,-0.383492 0.821003,-1.018816 1.208385,-1.411831 3.259106,-3.306498 8.027281,-4.631733 12.491552,-3.471818 3.118466,0.810246 5.927169,2.903269 7.37841,5.49833 0.769066,1.375217 0.905077,3.051117 0.374522,4.614759 -0.88847,2.618481 -2.774033,4.724539 -5.301824,5.921811 -0.740688,0.350822 -2.266254,0.895829 -2.507575,0.895829 -0.08759,0 0.07411,-0.2211 0.475225,-0.649822 1.057511,-1.130293 1.611926,-2.358281 1.707421,-3.78181 0.183933,-2.741889 -1.61957,-5.218706 -4.315728,-5.926946 -0.786332,-0.206557 -2.204309,-0.185423 -2.943981,0.04388 -1.030742,0.319535 -1.748897,0.747179 -2.485261,1.479913 -0.760287,0.75654 -1.196398,1.527159 -1.470375,2.598195 -0.226737,0.886361 -0.226189,2.275122 0.0012,3.107488 0.533212,1.951632 2.096612,3.230627 4.767881,3.900535 0.383492,0.09617 0.748412,0.190365 0.810932,0.209317 0.06271,0.01901 -0.249921,0.226645 -0.697259,0.463099 -1.679045,0.887508 -3.268232,2.12677 -4.219752,3.290599 -0.587747,0.718889 -1.079789,1.230988 -1.182773,1.230988 -0.04389,0 -0.272792,-0.101519 -0.50867,-0.225599 z"
     id="path358" />
  <path
     style="fill:#ffffff;stroke-width:0.0774732"
     d="m 13.054924,50.152806 c 0.0013,-0.262595 0.506312,-1.615303 0.797486,-2.135973 1.227878,-2.19565 3.554387,-4.065214 5.907307,-4.747064 0.950939,-0.275571 2.513823,-0.416403 2.513823,-0.226522 0,0.01586 -0.117345,0.212541 -0.260767,0.437072 -0.821833,1.286607 -1.386779,2.899768 -1.559589,4.453299 -0.06207,0.558 0.04229,0.499136 -1.278571,0.721184 -1.779985,0.299231 -2.8161,0.550353 -4.377235,1.060903 -0.852205,0.278704 -1.593042,0.523436 -1.646305,0.543851 -0.05615,0.02152 -0.09655,-0.02334 -0.09615,-0.10675 z"
     id="path360" />
</svg>
